<?xml version="1.0" encoding="UTF-8" standalone="no"?>
<svg width="48px" height="48px" viewBox="0 0 48 48" version="1.1" xmlns="http://www.w3.org/2000/svg" xmlns:xlink="http://www.w3.org/1999/xlink" xmlns:sketch="http://www.bohemiancoding.com/sketch/ns">
    <!-- Generator: Sketch 3.1 (8751) - http://www.bohemiancoding.com/sketch -->
    <title>Oval 1</title>
    <desc>Created with Sketch.</desc>
    <defs></defs>
    <g id="Page-1" stroke="none" stroke-width="1" fill="none" fill-rule="evenodd" sketch:type="MSPage">
        <g id="Desktop-5" sketch:type="MSArtboardGroup" transform="translate(-27.000000, -27.000000)" fill="#FFFFFF">
            <g id="Oval-1-+-~-+-n" sketch:type="MSLayerGroup" transform="translate(27.000000, 27.000000)">
                <path d="M24,48 C37.254834,48 48,37.254834 48,24 C48,10.745166 37.254834,0 24,0 C10.745166,0 0,10.745166 0,24 C0,37.254834 10.745166,48 24,48 Z M12.68,25.12 C13.12,23.88 13.64,23.44 14.24,23.44 C15.34,23.44 16.12,25.04 17.72,25.04 C18.86,25.04 19.96,24.32 20.72,22.34 L19.32,21.68 C18.88,22.94 18.36,23.36 17.76,23.36 C16.66,23.36 15.88,21.76 14.28,21.76 C13.14,21.76 12.04,22.48 11.28,24.48 L12.68,25.12 Z M24.64,29 L26.96,29 L26.96,22.3 C27.86,21.38 28.52,20.92 29.48,20.92 C30.82,20.92 31.32,21.64 31.32,23.22 L31.32,29 L33.64,29 L33.64,22.92 C33.64,20.38 32.6,18.94 30.34,18.94 C28.84,18.94 27.72,19.72 26.8,20.66 L26.72,20.66 L26.54,19.18 L24.64,19.18 L24.64,29 L24.64,29 Z" id="Oval-1" sketch:type="MSShapeGroup"></path>
            </g>
        </g>
    </g>
</svg>