<svg xmlns="http://www.w3.org/2000/svg" viewBox="0 0 48 48" version="1.1">
  <g stroke="none" stroke-width="1" fill="none" fill-rule="evenodd">
    <g fill="#FFFFFF">
      <path d="M24 48C37.25 48 48 37.25 48 24 48 10.75 37.25 0 24 0 10.75 0 0 10.75 0 24 0 37.25 10.75 48 24 48ZM12.68 25.12C13.12 23.88 13.64 23.44 14.24 23.44 15.34 23.44 16.12 25.04 17.72 25.04 18.86 25.04 19.96 24.32 20.72 22.34L19.32 21.68C18.88 22.94 18.36 23.36 17.76 23.36 16.66 23.36 15.88 21.76 14.28 21.76 13.14 21.76 12.04 22.48 11.28 24.48L12.68 25.12ZM24.64 29L26.96 29 26.96 22.3C27.86 21.38 28.52 20.92 29.48 20.92 30.82 20.92 31.32 21.64 31.32 23.22L31.32 29 33.64 29 33.64 22.92C33.64 20.38 32.6 18.94 30.34 18.94 28.84 18.94 27.72 19.72 26.8 20.66L26.72 20.66 26.54 19.18 24.64 19.18 24.64 29 24.64 29Z"/>
    </g>
  </g>
</svg>
