<?xml version="1.0" encoding="utf-8"?>
<!-- Generator: Adobe Illustrator 17.0.0, SVG Export Plug-In . SVG Version: 6.00 Build 0)  -->
<!DOCTYPE svg PUBLIC "-//W3C//DTD SVG 1.1//EN" "http://www.w3.org/Graphics/SVG/1.1/DTD/svg11.dtd">
<svg version="1.1" id="Layer_1" xmlns="http://www.w3.org/2000/svg" xmlns:xlink="http://www.w3.org/1999/xlink" x="0px" y="0px"
	 width="55px" height="55px" viewBox="0 0 55 55" enable-background="new 0 0 55 55" xml:space="preserve">
<circle fill="none" stroke="#FFFFFF" stroke-width="2" stroke-miterlimit="10" cx="27.892" cy="27.378" r="24.892"/>
<g>
	<path fill="#FFFFFF" d="M14.353,28.402c0.937-2.32,2.253-3.235,3.636-3.235c1.852,0,2.61,1.696,3.838,1.696
		c0.624,0,1.204-0.58,1.628-1.83l1.963,0.915c-0.937,2.32-2.253,3.235-3.636,3.235c-1.852,0-2.61-1.696-3.837-1.696
		c-0.603,0-1.205,0.602-1.629,1.829L14.353,28.402z"/>
</g>
<g>
	<path fill="#FFFFFF" d="M32.345,21.822l0.076,1.362c0.414-0.501,0.911-0.89,1.492-1.166s1.227-0.414,1.938-0.414
		c0.566,0,1.08,0.078,1.542,0.234c0.461,0.156,0.854,0.408,1.182,0.757c0.326,0.349,0.579,0.803,0.757,1.362
		s0.267,1.238,0.267,2.037v7.614h-2.646v-7.635c0-0.407-0.046-0.75-0.137-1.03c-0.091-0.279-0.223-0.506-0.397-0.681
		c-0.174-0.174-0.391-0.299-0.647-0.375c-0.258-0.076-0.554-0.115-0.888-0.115c-0.545,0-1.019,0.131-1.422,0.392
		c-0.403,0.262-0.725,0.614-0.964,1.057v8.387h-2.646V21.822H32.345z"/>
</g>
</svg>
