<?xml version="1.0" encoding="UTF-8" ?>
<!DOCTYPE svg PUBLIC "-//W3C//DTD SVG 1.1//EN" "http://www.w3.org/Graphics/SVG/1.1/DTD/svg11.dtd">
<svg width="250pt" height="52pt" viewBox="0 0 250 52" version="1.1" xmlns="http://www.w3.org/2000/svg">
<g id="#ffffffff">
</g>
<g id="#000000ff">
<path fill="#000000" opacity="1.00" d=" M 3.01 3.45 C 8.68 3.46 14.34 3.35 20.01 3.48 C 26.72 3.87 32.67 8.41 35.87 14.18 C 39.12 20.30 41.96 26.63 45.25 32.73 C 46.33 34.88 48.47 36.38 50.91 36.44 C 50.82 25.43 50.87 14.42 50.88 3.41 C 55.85 3.45 60.82 3.43 65.78 3.44 C 65.76 8.24 65.79 13.03 65.72 17.83 C 62.27 19.15 59.38 22.21 59.30 26.06 C 58.82 30.26 61.92 33.98 65.73 35.32 C 65.80 40.14 65.74 44.96 65.79 49.78 C 60.85 49.82 55.91 49.78 50.98 49.82 C 45.26 50.11 39.61 47.43 35.92 43.12 C 31.90 38.18 29.81 32.03 26.72 26.52 C 24.63 22.69 23.15 16.91 17.87 16.66 C 17.88 27.69 17.82 38.72 17.91 49.75 C 12.95 49.83 7.98 49.81 3.02 49.77 C 3.06 34.33 3.07 18.89 3.01 3.45 Z" />
<path fill="#000000" opacity="1.00" d=" M 70.12 3.47 C 112.15 3.44 154.18 3.35 196.21 3.51 C 202.47 14.91 208.89 26.21 215.11 37.63 C 221.32 26.32 227.03 14.73 233.20 3.40 C 238.47 3.50 243.74 3.33 249.02 3.52 C 248.14 4.81 247.25 6.08 246.51 7.46 C 239.09 21.59 231.59 35.69 224.12 49.80 C 218.10 49.80 212.08 49.79 206.06 49.80 C 199.55 37.98 192.88 26.24 186.35 14.43 C 179.72 14.36 173.09 14.42 166.46 14.40 C 166.45 26.20 166.51 38.00 166.43 49.79 C 161.67 49.80 156.90 49.81 152.14 49.78 C 152.14 37.98 152.20 26.17 152.11 14.36 C 144.80 14.44 137.49 14.38 130.19 14.40 C 131.52 19.47 131.40 24.74 131.23 29.93 C 131.01 35.22 129.60 40.82 125.67 44.60 C 121.90 48.49 116.24 49.83 110.98 49.81 C 97.38 49.77 83.78 49.85 70.18 49.76 C 70.22 44.94 70.16 40.12 70.24 35.31 C 73.45 34.06 76.27 31.37 76.57 27.79 C 77.27 23.41 74.24 19.33 70.23 17.86 C 70.16 13.06 70.27 8.26 70.12 3.47 M 84.61 14.49 C 84.73 22.55 84.65 30.62 84.66 38.68 C 92.80 38.79 100.94 38.72 109.09 38.73 C 112.29 38.87 116.06 37.11 116.50 33.60 C 116.76 29.10 116.69 24.57 116.54 20.06 C 116.23 16.40 112.42 14.37 109.06 14.44 C 100.91 14.40 92.76 14.30 84.61 14.49 Z" />
</g>
<g id="#ee0000ff">
<path fill="#ee0000" opacity="1.00" d=" M 59.30 26.06 C 59.38 22.21 62.27 19.15 65.72 17.83 C 67.22 17.67 68.73 17.68 70.23 17.86 C 74.24 19.33 77.27 23.41 76.57 27.79 C 76.27 31.37 73.45 34.06 70.24 35.31 C 68.74 35.46 67.24 35.47 65.73 35.32 C 61.92 33.98 58.82 30.26 59.30 26.06 Z" />
</g>
</svg>
