<?xml version="1.0" encoding="UTF-8" standalone="no"?>
<svg xmlns="http://www.w3.org/2000/svg" height="406px" width="590px" version="1.1" viewBox="0 0 590 406">
 <path fill="#FA4B2A" d="m137.5 394.75c0 3.03-0.68 6.27-3.01 8.75h60.51v-30.38c-4.2 1.93-9.38 2.88-14.38 2.88h-13.12v-10h6.88c3.74 0 7.06 0.36 10.62 1.88v-26.26c-3.56 1.52-6.88 1.88-10.62 1.88h-6.88v-11.25h13.12c5 0 10.18 0.95 14.38 2.87v-29.12h-60.62c2.33 2.02 3.12 5.72 3.12 8.75v80zm-52.5-51.25v-10h1.268c3.424 0 7.397 0.55 9.982 1.93v-29.43h-42.474v97.5h34.349c-2.33-2.02-3.125-5.72-3.125-8.75v-27.5h16.25v27.5c0 3.03-0.79 6.73-3.125 8.75h34.375v-97.5h-31.25v37.5h-16.25zm-74.861-10h7.361v61.25c0 3.03-0.794 6.73-3.125 8.75h34.375v-97.5h-48.75l-1.7053e-13 29.43c2.7412-1.38 6.715-1.93 10.139-1.93zm517.33 10h-37.41c-1.91 0-4.11-0.18-6.31-0.88v24.26c2.2-0.69 4.4-0.88 6.31-0.88h9.94v7.5c-1.23 1.1-3.91 1.71-6.65 1.71-11.37 0-19.73-8.97-19.73-19.83 0-10.88 8.13-20.63 19.5-20.63 6.88 0 14.64 2.25 23.13 6.26v-35.01h-25c-26.99 0-48.5 20.89-48.5 49.13 0 27.65 21.66 50.87 49.75 50.87 15.48 0 29.9-6.3 37.43-14-1.5-2.76-2.46-5.5-2.46-8.81v-39.69zm48.15-11.25c5 0 10.18 0.95 14.38 2.87v-29.12h-60.62c2.33 2.02 3.12 5.72 3.12 8.75v80c0 3.03-0.68 6.27-3.01 8.75h60.51v-30.38c-4.2 1.93-9.38 2.88-14.38 2.88h-13.12v-10h6.88c3.74 0 7.06 0.36 10.62 1.88v-26.26c-3.56 1.52-6.88 1.88-10.62 1.88h-6.88v-11.25h13.12zm-145 27.25c5.21-5.75 8.38-13.29 8.38-20.96 0-22.46-16.72-32.53-34.67-32.53l-38.69-0.01c2.32 2.02 3.12 5.69 3.12 8.71l-0.01 80.04c0 3.01-0.81 6.29-3.13 8.75h37.24c-2.33-2.46-2.86-5.9-2.86-8.75v-19.84c10.68 2.03 17.79 11.94 17.79 19.88 0 3.01-0.71 6.25-3.03 8.71h37.14c-2.33-2.46-2.93-6.03-3.15-9.04-1.25-17.21-7.17-29.35-18.13-34.96zm-30.62-9.62v-17.76c5 0 11.38 1.38 11.38 8.88s-6.38 8.88-11.38 8.88zm-136.25 9.87l-10-27.5h15l10-26.25h-70c2.19 2.21 4.24 4.68 5.75 7.57l38.72 89.93h21.15l31.88-75v66.25c-0.02 3.11-0.79 6.73-3.13 8.75h60.63v-30.38c-4.15 1.93-9.37 4.13-14.37 4.13h-13.13v-11.25h6.87c3.76 0 7.07 0.36 10.63 1.88v-26.26c-3.56 1.52-6.87 1.88-10.63 1.88h-6.87v-10h13.13c5 0 10.22 0.95 14.37 2.88v-30.38h-80l-20 53.75z"/>
 <path fill="#DCE1E6" d="m428.33 0l-133.33 231.11-99.95-173.33 133.28-0.002 16.67-28.889h-200l133.31 231.11h33.36l133.33-231.11-16.67-28.89z"/>
 <path fill="#FA4B2A" d="m395 0l-100 173.33-66.63-115.55-33.32-0.002 99.95 173.33 133.33-231.11h-33.33z"/>
 <path fill="#5564BE" d="m145 28.889h200l-66.67 115.55 16.67 28.89 100-173.33h-233.33l-16.67 28.889z"/>
</svg>
